<svg width="887" height="171" viewBox="0 0 887 171" fill="none" xmlns="http://www.w3.org/2000/svg">
<g clip-path="url(#clip0)">
<path d="M453.191 88.7351C481.497 100.289 544.845 113.692 597.64 85.9622C663.635 51.3 776.702 5.08379 845.927 19.4108" stroke="#BFBFBF" stroke-linejoin="round" stroke-dasharray="8 8"/>
<path d="M40.1504 146.043C63.6868 157.597 116.482 171 168.908 143.27C234.441 108.608 327.202 74.4081 413.503 80.8784" stroke="#BFBFBF" stroke-linejoin="round" stroke-dasharray="8 8"/>
<path d="M20.7675 170.538C31.9821 170.538 41.0734 161.433 41.0734 150.203C41.0734 138.972 31.9821 129.868 20.7675 129.868C9.55282 129.868 0.461548 138.972 0.461548 150.203C0.461548 161.433 9.55282 170.538 20.7675 170.538Z" stroke="#0066FF"/>
<path d="M20.7674 166.378C29.6882 166.378 36.9199 159.136 36.9199 150.203C36.9199 141.269 29.6882 134.027 20.7674 134.027C11.8467 134.027 4.61499 141.269 4.61499 150.203C4.61499 159.136 11.8467 166.378 20.7674 166.378Z" fill="#FEA929"/>
<path d="M18.3889 146.968V145.43H21.4606V156.211H19.7623V146.968H18.3889Z" fill="white"/>
<path d="M433.347 105.835C444.562 105.835 453.653 96.7308 453.653 85.5C453.653 74.2692 444.562 65.1649 433.347 65.1649C422.132 65.1649 413.041 74.2692 413.041 85.5C413.041 96.7308 422.132 105.835 433.347 105.835Z" stroke="#0066FF"/>
<path d="M433.347 101.676C442.268 101.676 449.499 94.4336 449.499 85.5C449.499 76.5664 442.268 69.3243 433.347 69.3243C424.426 69.3243 417.195 76.5664 417.195 85.5C417.195 94.4336 424.426 101.676 433.347 101.676Z" fill="#FEA929"/>
<path d="M430.441 89.2158C431.386 88.3975 432.129 87.727 432.671 87.2045C433.222 86.672 433.679 86.1199 434.044 85.5481C434.408 84.9762 434.59 84.4044 434.59 83.8325C434.59 83.2409 434.447 82.7776 434.162 82.4423C433.886 82.1071 433.448 81.9395 432.848 81.9395C432.266 81.9395 431.814 82.1269 431.489 82.5015C431.173 82.8663 431.006 83.3593 430.987 83.9804H429.363C429.392 82.8564 429.726 81.9987 430.367 81.4071C431.017 80.8056 431.838 80.5049 432.833 80.5049C433.906 80.5049 434.743 80.8007 435.344 81.3923C435.954 81.9839 436.259 82.7726 436.259 83.7586C436.259 84.4684 436.076 85.1536 435.713 85.8143C435.358 86.465 434.93 87.0517 434.428 87.5742C433.935 88.0869 433.306 88.6834 432.538 89.3637L431.873 89.9552H436.555V91.3602H429.377V90.1327L430.441 89.2158Z" fill="white"/>
<path d="M866.233 41.1324C877.447 41.1324 886.539 32.0281 886.539 20.7973C886.539 9.56651 877.447 0.462158 866.233 0.462158C855.018 0.462158 845.927 9.56651 845.927 20.7973C845.927 32.0281 855.018 41.1324 866.233 41.1324Z" stroke="#0066FF"/>
<path d="M866.233 36.973C875.153 36.973 882.385 29.7309 882.385 20.7973C882.385 11.8637 875.153 4.62161 866.233 4.62161C857.312 4.62161 850.08 11.8637 850.08 20.7973C850.08 29.7309 857.312 36.973 866.233 36.973Z" fill="#FEA929"/>
<path d="M862.243 18.6861C862.302 17.7692 862.652 17.0544 863.292 16.5417C863.942 16.029 864.769 15.7727 865.773 15.7727C866.462 15.7727 867.058 15.8959 867.56 16.1424C868.062 16.3889 868.441 16.7241 868.697 17.1481C868.953 17.5721 869.081 18.0502 869.081 18.5826C869.081 19.1939 868.918 19.7165 868.594 20.1503C868.269 20.5841 867.88 20.8749 867.427 21.0228V21.082C868.007 21.2595 868.461 21.5848 868.786 22.0581C869.11 22.5214 869.273 23.118 869.273 23.8476C869.273 24.4292 869.14 24.9469 868.874 25.4004C868.608 25.854 868.214 26.2138 867.693 26.48C867.171 26.7364 866.545 26.8646 865.817 26.8646C864.754 26.8646 863.878 26.5935 863.189 26.0512C862.509 25.4991 862.145 24.7102 862.096 23.6849H863.72C863.76 24.2074 863.961 24.6363 864.326 24.9716C864.69 25.2969 865.182 25.4596 865.802 25.4596C866.403 25.4596 866.866 25.2969 867.191 24.9716C867.516 24.6363 867.678 24.2074 867.678 23.6849C867.678 22.9947 867.456 22.5067 867.013 22.2208C866.581 21.925 865.91 21.7771 865.005 21.7771H864.621V20.3869H865.02C865.817 20.377 866.423 20.2439 866.836 19.9876C867.26 19.7313 867.471 19.327 867.471 18.7749C867.471 18.3016 867.319 17.927 867.013 17.6509C866.708 17.365 866.275 17.222 865.714 17.222C865.163 17.222 864.735 17.365 864.429 17.6509C864.124 17.927 863.942 18.272 863.883 18.6861H862.243Z" fill="white"/>
</g>
<defs>
<clipPath id="clip0">
<rect width="887" height="171" fill="white"/>
</clipPath>
</defs>
</svg>
