<svg width="57" height="57" viewBox="0 0 57 57" fill="none" xmlns="http://www.w3.org/2000/svg">
<g filter="url(#filter0_d)">
<path fill-rule="evenodd" clip-rule="evenodd" d="M55.0716 28.035C55.0716 13.1112 42.9603 1 28.0362 1C13.1125 1 1 13.1112 1 28.035C1 42.9578 13.1122 55.0703 28.0362 55.0703C42.9606 55.07 55.0716 42.9578 55.0716 28.035Z" fill="url(#paint0_linear)"/>
<path d="M25.7609 40.7918H30.1959V37.5957C33.4388 36.8122 35.4382 34.5642 35.4382 31.5791C35.4382 28.5237 33.8126 26.6526 30.0024 25.3217C28.6037 24.8136 26.9864 24.1482 26.9864 23.5519C26.9864 22.7684 28.0889 22.6479 28.7446 22.6479C30.6617 22.6479 31.8884 23.237 32.623 23.5889L33.4662 23.9919L33.7338 23.1047L34.7849 19.1584L34.2008 18.8829C33.4232 18.518 32.1798 18.0612 30.344 17.905V15.2527H25.9091V18.2199C22.8298 19.0189 20.9319 21.1953 20.9319 24.0528C20.9319 27.7366 24.0457 29.2536 26.7595 30.1671C29.0647 30.9435 29.3837 31.504 29.3837 31.9918C29.3837 32.7169 28.3373 33.0412 27.3006 33.0412C25.2808 33.0412 23.6014 32.2899 22.7832 31.8415L21.9089 31.3645L20.6309 36.3483V36.3495L21.1552 36.6381C22.3377 37.2916 24.0816 37.7519 25.7609 37.9034V40.7918Z" fill="#E4E4E4"/>
</g>
<defs>
<filter id="filter0_d" x="0" y="0" width="56.0716" height="56.0703" filterUnits="userSpaceOnUse" color-interpolation-filters="sRGB">
<feFlood flood-opacity="0" result="BackgroundImageFix"/>
<feColorMatrix in="SourceAlpha" type="matrix" values="0 0 0 0 0 0 0 0 0 0 0 0 0 0 0 0 0 0 127 0"/>
<feOffset/>
<feGaussianBlur stdDeviation="0.5"/>
<feColorMatrix type="matrix" values="0 0 0 0 0 0 0 0 0 0 0 0 0 0 0 0 0 0 0.25 0"/>
<feBlend mode="normal" in2="BackgroundImageFix" result="effect1_dropShadow"/>
<feBlend mode="normal" in="SourceGraphic" in2="effect1_dropShadow" result="shape"/>
</filter>
<linearGradient id="paint0_linear" x1="28.0358" y1="1" x2="28.0358" y2="55.0703" gradientUnits="userSpaceOnUse">
<stop stop-color="#00AC11"/>
<stop offset="1" stop-color="#369B46"/>
</linearGradient>
</defs>
</svg>
