<svg width="110" height="110" viewBox="0 0 110 110" fill="none" xmlns="http://www.w3.org/2000/svg">
<path d="M55 0C24.6275 0 0 24.6227 0 54.9976C0 85.3725 24.6251 109.995 55 109.995C85.3773 109.995 110 85.3725 110 54.9976C110 24.6227 85.3773 0 55 0ZM55 16.4449C65.0501 16.4449 73.194 24.5913 73.194 34.6365C73.194 44.6842 65.0501 52.8281 55 52.8281C44.9548 52.8281 36.8108 44.6842 36.8108 34.6365C36.8108 24.5913 44.9548 16.4449 55 16.4449ZM54.9879 95.6158C44.9644 95.6158 35.7841 91.9654 28.7031 85.9233C26.9782 84.452 25.9828 82.2946 25.9828 80.031C25.9828 69.8432 34.2282 61.6896 44.4184 61.6896H65.5864C75.779 61.6896 83.993 69.8432 83.993 80.031C83.993 82.2971 83.0025 84.4496 81.2751 85.9209C74.1966 91.9654 65.0138 95.6158 54.9879 95.6158Z" fill="#DFDEDE"/>
</svg>
