<svg width="651" height="499" viewBox="0 0 651 499" fill="none" xmlns="http://www.w3.org/2000/svg">
<path opacity="0.1" d="M207.181 92.8609C207.181 92.8609 201.843 85.8479 198.572 82.6339C192.68 76.8459 185.923 66.6159 164.313 74.1559C162.633 74.7419 161.006 75.5189 159.389 76.3019C157.484 77.2239 151.583 77.2479 145.539 71.7669C135.936 63.0569 132.18 56.4849 119.022 56.2809C103.713 56.0429 101.305 77.8419 89.4064 83.4209C81.8344 86.9719 61.8564 90.5009 57.7244 92.0739L207.181 92.8609Z" fill="#2A94F4"/>
<path d="M52.5605 385.645C53.5695 385.707 79.0435 382.648 80.2015 358.959C81.3595 335.271 65.1255 329.404 69.3985 303.033C73.6715 276.661 84.8785 269.084 59.7605 249.836C59.7605 249.836 48.5605 242.086 48.0385 231.214C47.4145 218.201 24.9495 203.097 9.88148 211.778C-5.18651 220.459 -1.64552 233.872 11.2565 255.575C24.1585 277.278 11.7255 281.067 9.24548 288.083C6.76648 295.099 1.01549 302.461 14.1845 319.231C27.3535 336.001 11.6645 356.476 22.8745 372.534C22.8755 372.535 32.7125 384.421 52.5605 385.645Z" fill="#2A94F4"/>
<path d="M48.5813 421.954C48.0353 421.815 47.6833 421.273 47.7903 420.712C61.4743 348.407 33.5803 249.802 33.2973 248.815C33.1333 248.244 33.4633 247.648 34.0343 247.485C34.6043 247.319 35.2013 247.65 35.3643 248.222C35.6493 249.214 63.6813 348.311 49.9033 421.112C49.7933 421.696 49.2303 422.079 48.6463 421.969C48.6253 421.964 48.6033 421.959 48.5813 421.954Z" fill="#0B4870"/>
<path d="M42.8693 287.519C42.8103 287.504 42.7513 287.484 42.6943 287.458C42.1523 287.215 41.9093 286.579 42.1513 286.037C42.2083 285.909 47.8943 273.131 50.2273 262.22C50.3523 261.639 50.9233 261.269 51.5043 261.393C52.0903 261.515 52.4553 262.089 52.3313 262.67C49.9513 273.806 44.1733 286.785 44.1153 286.915C43.8983 287.399 43.3673 287.645 42.8693 287.519Z" fill="#0B4870"/>
<path d="M46.5483 309.393C46.3993 309.355 46.2554 309.284 46.1284 309.179C40.7214 304.707 27.1193 296.288 26.9823 296.203C26.4773 295.891 26.3203 295.228 26.6333 294.723C26.9443 294.218 27.6043 294.055 28.1133 294.374C28.6763 294.722 41.9774 302.956 47.4994 307.522C47.9574 307.9 48.0213 308.578 47.6423 309.036C47.3693 309.368 46.9393 309.492 46.5483 309.393Z" fill="#0B4870"/>
<path d="M49.6023 330.691C49.5273 330.672 49.4533 330.644 49.3803 330.608C48.8503 330.34 48.6383 329.692 48.9063 329.162L56.4873 314.187C56.7553 313.658 57.4003 313.442 57.9333 313.714C58.4633 313.983 58.6753 314.63 58.4063 315.16L50.8253 330.135C50.5943 330.592 50.0793 330.812 49.6023 330.691Z" fill="#0B4870"/>
<path d="M284.801 147.464L283.86 144.779L282.919 147.464C282.126 149.728 280.241 151.639 277.689 152.767C280.241 153.896 282.125 155.807 282.919 158.07L283.86 160.756L284.801 158.07C285.594 155.806 287.479 153.896 290.031 152.767C287.479 151.639 285.595 149.728 284.801 147.464Z" fill="white"/>
<path d="M442.492 117.084L440.913 112.581L439.335 117.084C438.005 120.88 434.845 124.084 430.566 125.977C434.845 127.87 438.005 131.074 439.335 134.87L440.913 139.373L442.492 134.87C443.822 131.074 446.982 127.87 451.261 125.977C446.982 124.083 443.822 120.879 442.492 117.084Z" fill="white"/>
<g opacity="0.5">
<path opacity="0.5" d="M522.156 399.588H126.137V185.774C126.137 183.849 127.697 182.289 129.622 182.289H518.671C520.596 182.289 522.156 183.849 522.156 185.774V399.588Z" fill="#2A94F4"/>
<path opacity="0.5" d="M540.673 422.563H107.62C105.638 422.563 104.032 420.956 104.032 418.975V399.589H544.262V418.975C544.261 420.956 542.655 422.563 540.673 422.563Z" fill="#2A94F4"/>
<path opacity="0.5" d="M272.698 399.588L277.333 404.046C279.172 405.815 281.625 406.803 284.177 406.803H364.797C367.639 406.803 370.342 405.578 372.216 403.441L375.596 399.588H272.698Z" fill="white"/>
<path opacity="0.5" d="M507.422 196.664H140.87V387.146H507.422V196.664Z" fill="#F7F7F7"/>
</g>
<path d="M3.23535 422.563H650.312" stroke="#102236" stroke-width="0.3749" stroke-miterlimit="10" stroke-linecap="round" stroke-linejoin="round"/>
<path d="M333.777 146.996C361.138 146.996 383.318 124.816 383.318 97.4548C383.318 70.0941 361.138 47.9138 333.777 47.9138C306.417 47.9138 284.236 70.0941 284.236 97.4548C284.236 124.816 306.417 146.996 333.777 146.996Z" fill="#FFBE55"/>
<path d="M333.777 139.372C310.663 139.372 291.86 120.568 291.86 97.4548C291.86 74.3418 310.664 55.5378 333.777 55.5378C356.89 55.5378 375.694 74.3418 375.694 97.4548C375.694 120.568 356.89 139.372 333.777 139.372Z" fill="#FFBE55"/>
<path d="M342.658 95.9778C345.708 94.9088 347.646 91.7588 347.646 87.8618C347.646 82.4228 343.938 78.8338 338.014 78.4478V73.5888H332.068V78.4118H329.338V73.5888H323.391V78.4118H318.96V86.0488H323.2V108.202H318.96V115.835H323.391V121.32H329.338V115.835H332.068V121.32H338.014V115.825C344.496 115.614 348.594 111.659 348.594 105.428C348.593 100.622 346.326 96.9398 342.658 95.9778ZM330.702 86.0488H336.516C337.074 86.0488 337.578 86.1418 338.014 86.3238C339.194 86.8138 339.895 87.9368 339.895 89.5698C339.895 91.2828 339.194 92.4838 338.014 93.0098C337.578 93.2028 337.074 93.3068 336.516 93.3068H330.702V86.0488ZM338.014 108.07C337.56 108.192 337.059 108.256 336.516 108.256L330.702 108.202V100.354H336.516C337.06 100.354 337.56 100.418 338.014 100.54C339.762 101.005 340.803 102.331 340.803 104.198C340.803 106.232 339.762 107.595 338.014 108.07Z" fill="white"/>
<path d="M126.057 220.744C143.772 220.744 158.132 206.383 158.132 188.669C158.132 170.954 143.772 156.594 126.057 156.594C108.343 156.594 93.9824 170.954 93.9824 188.669C93.9824 206.383 108.343 220.744 126.057 220.744Z" fill="#FFBE55"/>
<path d="M126.057 215.808C111.092 215.808 98.9185 203.633 98.9185 188.669C98.9185 173.705 111.093 161.53 126.057 161.53C141.021 161.53 153.196 173.705 153.196 188.669C153.196 203.633 141.022 215.808 126.057 215.808Z" fill="#FFBE55"/>
<path d="M141.936 186.776C141.467 183.972 138.812 181.973 135.987 182.289C133.607 182.555 131.771 184.322 131.292 186.533L129.22 186.782C127.185 187.026 125.15 186.322 123.7 184.873L122.225 183.398C123.215 181.363 122.862 178.84 121.156 177.16C119.13 175.166 115.808 175.098 113.706 177.012C111.402 179.111 111.339 182.682 113.518 184.861C115.197 186.54 117.702 186.882 119.724 185.899L120.744 186.919C122.342 188.516 123.024 190.813 122.557 193.024L122.223 194.601C119.978 194.881 118.056 196.554 117.58 198.901C117.015 201.687 118.77 204.508 121.521 205.225C124.537 206.01 127.563 204.114 128.2 201.1C128.691 198.776 127.611 196.49 125.683 195.333C126.274 192.534 128.583 190.422 131.423 190.081L131.713 190.046C132.695 192.069 134.876 193.347 137.234 193.064C140.294 192.696 142.451 189.85 141.936 186.776Z" fill="white"/>
<path d="M371.223 467.334H307.074V476.482H371.223V467.334Z" fill="#FFBE55"/>
<path d="M339.149 454.363C321.434 454.363 307.074 464.266 307.074 476.481C307.074 488.697 321.435 498.6 339.149 498.6C356.863 498.6 371.223 488.697 371.223 476.481C371.224 464.266 356.864 454.363 339.149 454.363Z" fill="#FFBE55"/>
<path d="M339.149 489.453C356.864 489.453 371.224 479.55 371.224 467.334C371.224 455.118 356.864 445.215 339.149 445.215C321.435 445.215 307.074 455.118 307.074 467.334C307.074 479.55 321.435 489.453 339.149 489.453Z" fill="#FFBE55"/>
<path d="M339.149 486.049C324.184 486.049 312.01 477.654 312.01 467.334C312.01 457.014 324.185 448.619 339.149 448.619C354.113 448.619 366.289 457.014 366.289 467.334C366.289 477.654 354.114 486.049 339.149 486.049Z" fill="#FFBE55"/>
<path d="M355.028 466.029C354.559 464.095 351.904 462.717 349.079 462.935C346.699 463.118 344.863 464.337 344.384 465.862L342.312 466.034C340.276 466.202 338.242 465.717 336.792 464.717L335.316 463.699C336.306 462.296 335.954 460.556 334.247 459.398C332.221 458.023 328.899 457.976 326.797 459.296C324.493 460.743 324.43 463.206 326.609 464.708C328.288 465.866 330.793 466.102 332.815 465.424L333.835 466.127C335.433 467.229 336.114 468.813 335.648 470.337L335.314 471.425C333.069 471.618 331.147 472.772 330.671 474.39C330.106 476.311 331.861 478.257 334.612 478.751C337.628 479.293 340.654 477.985 341.291 475.906C341.782 474.303 340.702 472.727 338.774 471.929C339.365 469.999 341.674 468.542 344.514 468.307L344.804 468.283C345.786 469.678 347.967 470.559 350.325 470.364C353.386 470.111 355.543 468.148 355.028 466.029Z" fill="white"/>
<path opacity="0.16" d="M321.395 277.436H177.72C177.151 277.436 176.689 276.974 176.689 276.405V230.757C176.689 230.188 177.15 229.726 177.72 229.726H321.394C321.963 229.726 322.425 230.188 322.425 230.757V276.405C322.426 276.974 321.964 277.436 321.395 277.436Z" fill="#B8B8B8"/>
<path d="M332.643 264.105H194.837C194.279 264.105 193.827 263.653 193.827 263.095V217.404C193.827 216.846 194.279 216.394 194.837 216.394H332.643C333.201 216.394 333.653 216.846 333.653 217.404V263.095C333.652 263.653 333.2 264.105 332.643 264.105Z" fill="#FFBE55"/>
<path d="M310.887 234.114H212.201C211.345 234.114 210.652 233.422 210.652 232.565C210.652 231.708 211.344 231.016 212.201 231.016H310.887C311.744 231.016 312.436 231.708 312.436 232.565C312.437 233.421 311.744 234.114 310.887 234.114Z" fill="white"/>
<path d="M257.8 249.484H212.201C211.345 249.484 210.652 248.792 210.652 247.935C210.652 247.079 211.344 246.386 212.201 246.386H257.8C258.657 246.386 259.349 247.078 259.349 247.935C259.349 248.792 258.657 249.484 257.8 249.484Z" fill="white"/>
<path opacity="0.16" d="M259.388 359.514H126.137V309.332C126.137 308.766 126.596 308.307 127.162 308.307H259.388C259.954 308.307 260.413 308.766 260.413 309.332V358.488C260.413 359.055 259.954 359.514 259.388 359.514Z" fill="#B8B8B8"/>
<path d="M282.639 345.206H94.6434C93.9694 345.206 93.4224 344.659 93.4224 343.985V295.22C93.4224 294.546 93.9694 293.999 94.6434 293.999H282.639C283.313 293.999 283.86 294.546 283.86 295.22V343.985C283.86 344.66 283.313 345.206 282.639 345.206Z" fill="#FFBE55"/>
<path d="M261.275 313.017H155.357C154.438 313.017 153.695 312.274 153.695 311.355C153.695 310.436 154.438 309.693 155.357 309.693H261.275C262.194 309.693 262.937 310.436 262.937 311.355C262.937 312.274 262.194 313.017 261.275 313.017Z" fill="white"/>
<path d="M204.297 329.514H155.357C154.438 329.514 153.695 328.771 153.695 327.852C153.695 326.933 154.438 326.19 155.357 326.19H204.297C205.216 326.19 205.959 326.933 205.959 327.852C205.959 328.771 205.217 329.514 204.297 329.514Z" fill="white"/>
<path d="M139.262 333.91H108.619C108.019 333.91 107.532 333.423 107.532 332.823V305.193C107.532 304.593 108.019 304.106 108.619 304.106H139.262C139.862 304.106 140.349 304.593 140.349 305.193V332.823C140.349 333.424 139.862 333.91 139.262 333.91Z" fill="white"/>
<path d="M476.383 374.268H337.097C336.354 374.268 335.752 373.666 335.752 372.923V292.283C335.752 291.54 336.354 290.938 337.097 290.938H476.383C477.126 290.938 477.728 291.54 477.728 292.283V372.923C477.728 373.666 477.126 374.268 476.383 374.268Z" fill="#EBEDFD"/>
<path d="M445.812 309.586H444.824V359.032H445.812V309.586Z" fill="white"/>
<path d="M430.889 309.586H429.901V359.032H430.889V309.586Z" fill="white"/>
<path d="M415.966 309.586H414.979V359.032H415.966V309.586Z" fill="white"/>
<path d="M401.044 309.586H400.056V359.032H401.044V309.586Z" fill="white"/>
<path d="M386.121 309.586H385.133V359.032H386.121V309.586Z" fill="white"/>
<path d="M371.198 309.586H370.21V359.032H371.198V309.586Z" fill="white"/>
<path d="M456.412 364.722H358.396V365.71H456.412V364.722Z" fill="white"/>
<path d="M393.157 357.388C392.761 357.388 392.356 357.339 391.948 357.239C386.262 355.841 383.329 350.617 380.969 346.421C379.324 343.493 377.771 340.726 376.072 340.726C370.535 340.726 367.051 347.267 364.249 352.523C363.709 353.539 363.201 354.489 362.716 355.322C362.199 356.217 361.057 356.533 360.15 355.999C359.254 355.48 358.95 354.328 359.473 353.433C359.935 352.638 360.42 351.728 360.937 350.758C364.037 344.94 368.282 336.972 376.072 336.972C379.97 336.972 382.045 340.669 384.244 344.581C386.454 348.516 388.739 352.584 392.844 353.594C393.188 353.68 393.424 353.643 393.702 353.459C396.128 351.86 397.537 343.37 398.668 336.55C400.37 326.286 401.722 318.151 406.754 318.151C406.82 318.151 406.889 318.151 406.958 318.157C412.018 318.372 413.534 324.968 415.136 331.952C416.473 337.784 417.989 344.395 421.264 344.874C425.136 345.445 426.64 344.128 428.552 342.472C430.326 340.936 432.55 339.033 436.563 339.395C440.148 339.725 442.177 342.087 443.965 344.171C446.413 347.018 448.701 349.705 455.263 349.045C456.302 348.982 457.215 349.694 457.321 350.724C457.424 351.754 456.675 352.676 455.642 352.782C447.143 353.646 443.805 349.748 441.118 346.62C439.31 344.516 438.193 343.316 436.218 343.133C433.781 342.906 432.624 343.917 431.011 345.312C428.907 347.138 426.295 349.399 420.718 348.59C414.903 347.74 413.161 340.143 411.476 332.795C410.371 327.987 408.999 322.003 406.797 321.908C406.791 321.908 406.783 321.908 406.774 321.908C404.905 321.908 403.195 332.206 402.374 337.166C400.927 345.872 399.564 354.092 395.769 356.595C394.968 357.121 394.082 357.388 393.157 357.388Z" fill="#FFBE55"/>
<path d="M263.746 462.938L166.978 447.689C166.156 447.56 165.594 446.788 165.724 445.965C165.854 445.143 166.625 444.581 167.448 444.711L264.216 459.96C265.038 460.089 265.6 460.861 265.47 461.683C265.34 462.506 264.568 463.067 263.746 462.938Z" fill="#FFBE55"/>
<path d="M231.263 469.466H144.189C143.449 469.466 142.849 468.866 142.849 468.126C142.849 467.386 143.449 466.786 144.189 466.786H231.263C232.003 466.786 232.603 467.386 232.603 468.126C232.603 468.866 232.003 469.466 231.263 469.466Z" fill="#FFBE55"/>
<path opacity="0.1" d="M363.064 16.0649C363.064 16.0649 365.742 12.9849 367.383 11.5739C370.339 9.03186 373.728 4.53886 384.568 7.85086C385.411 8.10786 386.227 8.44986 387.038 8.79386C387.994 9.19886 390.954 9.20885 393.986 6.80185C398.803 2.97685 400.687 0.090857 407.287 0.000856998C414.967 -0.104143 416.175 9.46986 422.143 11.9199C425.942 13.4789 435.963 15.0289 438.036 15.7199L363.064 16.0649Z" fill="#2A94F4"/>
<path d="M565.004 444.866C565.004 444.866 568.823 456.131 569.608 457.997C570.256 459.537 571.646 460.57 572.964 461.598C573.386 461.927 573.805 462.67 574.161 463.296C574.447 463.799 574.429 464.393 574.2 464.925C570.201 474.211 559.375 477.436 559.165 476.711C558.787 475.403 560.504 472.907 562.801 471.737C565.113 470.56 566.542 468.151 566.783 465.568C566.975 463.513 566.633 461.443 565.792 459.559L561.919 451.114L565.004 444.866Z" fill="#FA968C"/>
<path d="M548.976 457.82L545.677 469.446C544.668 473.001 544.97 476.806 546.522 480.159C546.522 480.16 546.523 480.161 546.523 480.161C547.395 482.036 546.406 484.244 544.423 484.831C538.014 486.727 525.592 490.319 525.074 489.828C522.434 487.327 529.97 483.863 535.606 480.093C539.407 477.551 541.508 464.844 542.373 455.057L548.097 456.838C548.54 456.989 548.874 457.362 548.976 457.82Z" fill="#FA968C"/>
<path d="M536.654 483.508C534.004 484.221 531.136 484.341 528.504 484.519C528.202 484.539 527.909 484.64 527.66 484.812C525.045 486.617 523.672 488.502 525.072 489.828C525.635 490.361 540.233 486.08 545.928 484.384C547.119 484.029 547.704 482.704 547.18 481.577L546.226 479.525C543.205 481.222 540.012 482.605 536.654 483.508Z" fill="#0B4870"/>
<path d="M551.262 326.504C558.132 327.831 563.589 336.136 561.881 344.979C560.9 350.06 555.125 368.125 549.085 382.323C546.767 387.772 547.241 394.121 550.757 398.886C551.33 399.662 551.82 400.46 552.2 401.263C554.163 405.406 561.261 429.635 565.323 445.766C564.815 447.82 563.432 450.383 561.828 451.213C553.886 437.268 541.119 411.907 539.032 407.5C537.873 405.052 536.614 402.226 535.727 399.589C530.515 391.837 533.896 350.318 535.48 342.114C537.189 333.272 544.392 325.178 551.262 326.504Z" fill="#0B4870"/>
<path d="M562.813 277.153C563.232 269.561 558.8 263.143 552.914 262.818C547.028 262.493 541.918 268.385 541.499 275.977C541.08 283.57 545.511 289.988 551.397 290.313C557.283 290.638 562.394 284.746 562.813 277.153Z" fill="#0B4870"/>
<path d="M554.603 278.125C555.192 270.525 561.705 264.469 569.328 264.454C576.09 264.44 581.683 268.892 583.536 274.91C584.185 277.019 586.137 278.476 588.342 278.565C589.258 278.602 590.194 278.738 591.142 278.987C596.648 280.435 600.712 285.378 600.987 291.065C601.235 296.194 598.595 300.638 594.616 303.038C592.919 304.061 591.886 305.856 591.507 307.801C589.752 316.801 581.103 323.006 571.713 321.451C563.682 320.121 557.583 313.115 557.342 304.979C557.194 299.988 559.151 295.526 562.336 292.308C557.36 289.609 554.134 284.177 554.603 278.125Z" fill="#0B4870"/>
<path d="M553.132 258.308C553.132 258.308 546.928 261.751 547.377 266.875C547.377 266.875 544.3 264.43 544.006 256.579C543.802 251.138 553.132 258.308 553.132 258.308Z" fill="#0B4870"/>
<path d="M547.609 289.075C547.467 290.857 547.076 292.83 546.018 294.785C545.462 295.756 544.739 296.684 543.861 297.462C542.972 298.225 541.975 298.81 540.97 299.214C538.95 299.996 537.032 300.135 535.304 300.07C533.563 300.003 531.955 299.728 530.421 299.363C527.357 298.617 524.56 297.525 521.856 296.327C519.154 295.125 516.559 293.794 514.037 292.359C508.995 289.496 504.189 286.349 499.517 283.036C494.844 279.72 490.32 276.238 486.038 272.384C485.568 271.961 485.53 271.237 485.953 270.767C486.347 270.329 487.002 270.266 487.47 270.601L487.485 270.612C489.746 272.245 492.109 273.782 494.491 275.273C496.871 276.769 499.27 278.235 501.702 279.638C506.563 282.445 511.526 285.066 516.583 287.343C519.116 288.466 521.654 289.543 524.212 290.447C526.763 291.353 529.348 292.105 531.834 292.517C533.072 292.728 534.284 292.836 535.377 292.8C536.475 292.777 537.426 292.565 538.032 292.259C538.636 291.939 538.891 291.643 539.164 291.104C539.411 290.536 539.603 289.674 539.621 288.634C539.659 286.424 541.482 284.663 543.692 284.701C545.902 284.739 547.663 286.562 547.625 288.772C547.624 288.852 547.62 288.931 547.614 289.009L547.609 289.075Z" fill="#FAB9AF"/>
<path d="M543.26 315.258C541.259 307.896 537.278 292.32 537.967 287.339C538.408 284.148 541.222 281.841 544.439 282.018L565.308 283.169C568.768 283.36 571.448 286.26 571.358 289.724C571.201 295.778 567.657 309.381 565.694 316.495L543.26 315.258Z" fill="#FFBE55"/>
<path d="M542.358 457.603C542.041 457.385 541.879 457.002 541.911 456.619C543.199 441.294 545.211 421.78 545.756 418.049C545.818 417.622 545.893 417.202 545.978 416.79C543.69 398.464 545.344 359.428 545.394 352.579C545.46 343.573 551.429 333.736 558.425 333.788C565.422 333.839 572.598 341.48 574.385 349.833C575.564 355.345 568.253 383.93 560.903 404.534C559.356 408.871 558.895 413.497 559.301 418.084C559.581 421.256 559.538 424.507 559.178 426.973C558.642 430.645 553.68 445.443 549.094 458.095C548.961 458.461 548.648 458.739 548.263 458.802C546.233 459.133 544.15 458.835 542.358 457.603Z" fill="#0B4870"/>
<path d="M567.574 325.792C566.661 322.701 566.516 319.44 567.145 316.28C568.606 308.942 571.214 295.11 571.371 289.186C571.455 286.019 569.003 283.374 565.839 283.199L562.745 283.028C561.416 285.697 558.802 287.671 554.919 287.456C551.042 287.242 548.661 284.993 547.631 282.194L544.725 282.034C547.51 288.969 545.883 297.825 540.163 302.73C540.976 306.354 541.627 309.992 542.101 312.938C542.744 316.928 542.137 321.015 540.38 324.654C537.359 330.908 534.68 341.057 535.085 345.16C556.695 352.593 572.484 342.418 572.484 342.418L567.574 325.792Z" fill="#FFBE55"/>
<path d="M551.723 283.861L561.245 283.389L558.821 272.864L552.656 273.284L551.723 283.861Z" fill="#FAB9AF"/>
<path d="M552.656 273.284L558.821 272.864L559.578 276.15C558.122 277.62 556.176 280.861 553.948 280.738C553.241 280.699 552.608 280.464 552.049 280.065L552.656 273.284Z" fill="#FA968C"/>
<path d="M552.168 278.28C554.247 278.394 556.553 277.478 559.8 274.943C561.664 273.487 563.131 270.851 563.232 269.02L563.79 258.896L548.203 258.036C548.203 258.036 546.737 263.347 547.578 268.744C548.211 272.793 550.533 278.191 552.168 278.28Z" fill="#FAB9AF"/>
<path d="M560.696 266.96C560.587 268.935 561.444 270.589 562.611 270.653C563.777 270.717 565.206 268.199 565.315 266.224C565.424 264.249 564.172 263.564 563.005 263.5C561.839 263.435 560.805 264.984 560.696 266.96Z" fill="#FAB9AF"/>
<path d="M565.645 260.229C565.819 257.068 563.397 254.364 560.236 254.191L554.975 253.903C553.47 253.821 552.033 253.346 550.793 252.55C548.995 251.394 546.629 251.616 545.268 253.264C543.797 255.045 543.068 257.499 546.412 259.993C548.074 261.233 550.667 260.104 552.317 260.746C552.421 260.747 552.514 260.736 552.622 260.742L557.259 260.998C558.87 261.087 560.031 262.472 559.988 264.085C559.961 265.105 560.751 265.968 561.777 266.025L561.983 266.036L562.857 263.698L565.253 267.331L565.645 260.229Z" fill="#0B4870"/>
<path d="M486.946 266.001C486.946 266.001 489.444 270.899 488.201 272.157C486.959 273.415 485.894 274.032 483.995 272.292C482.096 270.552 480.321 267.261 479.651 265.074C478.981 262.887 479.406 258.748 479.744 258.336C480.975 256.832 481.772 260.921 482.255 262.882C482.738 264.843 483.478 267.01 484.356 266.511C485.234 266.012 484.027 262.326 484.844 261.421C485.66 260.517 486.946 266.001 486.946 266.001Z" fill="#FAB9AF"/>
<path d="M532.142 329.114C532.142 329.114 537.609 328.528 538.341 330.138C539.073 331.747 539.269 332.962 536.967 334.115C534.664 335.268 530.956 335.753 528.674 335.598C526.392 335.444 522.677 333.57 522.412 333.107C521.446 331.421 525.55 332.135 527.554 332.383C529.558 332.632 531.846 332.714 531.693 331.715C531.54 330.717 527.666 330.529 527.112 329.443C526.559 328.358 532.142 329.114 532.142 329.114Z" fill="#FAB9AF"/>
<path d="M549.377 257.923C549.772 260.265 548.931 261.487 556.313 265.515C563.695 269.543 566.179 268.133 568.333 272.15C568.333 272.15 567.653 265.655 563.588 263.215C559.523 260.774 552.341 258.93 550.294 253.685C550.293 253.684 549.107 256.323 549.377 257.923Z" fill="#0B4870"/>
<path d="M570.547 287.858C571.614 289.446 572.464 290.898 573.33 292.459C574.178 294.001 574.993 295.561 575.735 297.164C577.212 300.371 578.503 303.695 579.454 307.198C580.374 310.704 580.963 314.411 580.72 318.311C580.583 320.256 580.212 322.25 579.497 324.179C578.802 326.112 577.682 327.943 576.284 329.47C574.89 331.006 573.235 332.23 571.511 333.152C569.783 334.078 567.989 334.721 566.201 335.196C564.409 335.667 562.62 335.929 560.844 336.128C559.069 336.27 557.303 336.351 555.559 336.304C548.574 336.189 541.841 334.96 535.26 333.354C534.645 333.204 534.268 332.584 534.418 331.969C534.556 331.404 535.091 331.04 535.654 331.101L535.667 331.103C542.295 331.816 548.959 332.301 555.411 331.785C558.625 331.512 561.781 330.985 564.645 330.007C567.49 329.012 569.99 327.495 571.541 325.439C573.115 323.408 573.802 320.838 573.83 318.02C573.845 315.197 573.201 312.213 572.269 309.28C571.349 306.334 570.096 303.419 568.655 300.582C567.94 299.161 567.192 297.748 566.395 296.365C565.606 295.006 564.735 293.573 563.94 292.368L563.888 292.29C562.671 290.446 563.179 287.966 565.023 286.749C566.858 285.54 569.324 286.038 570.547 287.858Z" fill="#FAB9AF"/>
<path d="M550.811 258.435C550.811 258.435 550.094 266.21 543.08 269.576C543.08 269.576 546.405 263.853 546.413 259.992C546.421 256.131 551.407 255.799 550.811 258.435Z" fill="#0B4870"/>
<path d="M576.559 467.766C577.038 467.273 577.089 466.508 576.676 465.959C576.338 465.51 575.442 464.281 574.768 463.358C574.475 462.957 573.879 463.013 573.641 463.449C570.942 468.377 566.683 472.101 561.374 472.536C559.601 473.597 558.368 476.146 558.667 477.182C558.737 477.425 561.074 477.587 563.61 476.316C574.869 470.669 576.559 467.766 576.559 467.766Z" fill="#0B4870"/>
<path d="M480.362 268.665C499.444 268.665 514.914 253.196 514.914 234.114C514.914 215.032 499.444 199.563 480.362 199.563C461.28 199.563 445.812 215.032 445.812 234.114C445.812 253.196 461.28 268.665 480.362 268.665Z" fill="#FFBE55"/>
<path d="M480.362 263.347C464.242 263.347 451.128 250.233 451.128 234.113C451.128 217.994 464.242 204.879 480.362 204.879C496.481 204.879 509.596 217.993 509.596 234.113C509.596 250.233 496.481 263.347 480.362 263.347Z" fill="#FFBE55"/>
<path d="M480.362 215.458L469.732 232.553L480.362 237.539L490.992 232.553L480.362 215.458Z" fill="white"/>
<path d="M480.362 252.769L490.992 235.674L480.362 242.631L469.732 235.674L480.362 252.769Z" fill="white"/>
</svg>
