<svg width="241" height="57" viewBox="0 0 241 57" fill="none" xmlns="http://www.w3.org/2000/svg">
<g filter="url(#filter0_d)">
<path fill-rule="evenodd" clip-rule="evenodd" d="M55.0716 28.035C55.0716 13.1112 42.9603 1 28.0362 1C13.1125 1 1 13.1112 1 28.035C1 42.9578 13.1122 55.0703 28.0362 55.0703C42.9606 55.07 55.0716 42.9578 55.0716 28.035V28.035Z" fill="url(#paint0_linear)"/>
<path d="M25.7609 40.7918H30.1959V37.5957C33.4388 36.8121 35.4382 34.5641 35.4382 31.5791C35.4382 28.5237 33.8126 26.6526 30.0024 25.3216C28.6037 24.8136 26.9864 24.1481 26.9864 23.5519C26.9864 22.7683 28.0889 22.6479 28.7446 22.6479C30.6617 22.6479 31.8884 23.237 32.623 23.5888L33.4662 23.9919L33.7338 23.1046L34.7849 19.1584L34.2008 18.8829C33.4232 18.518 32.1798 18.0612 30.344 17.905V15.2527H25.9091V18.2198C22.8298 19.0189 20.9319 21.1953 20.9319 24.0527C20.9319 27.7366 24.0457 29.2536 26.7595 30.1671C29.0647 30.9435 29.3837 31.504 29.3837 31.9917C29.3837 32.7168 28.3373 33.0412 27.3006 33.0412C25.2808 33.0412 23.6014 32.2899 22.7832 31.8415L21.9089 31.3644L20.6309 36.3482V36.3494L21.1552 36.638C22.3377 37.2916 24.0816 37.7519 25.7609 37.9034V40.7918Z" fill="#E4E4E4"/>
</g>
<path d="M94.216 37.182C92.8813 37.182 91.6853 36.9653 90.628 36.532C89.5707 36.0987 88.7213 35.4573 88.08 34.608C87.456 33.7587 87.1267 32.736 87.092 31.54H91.824C91.8933 32.216 92.1273 32.736 92.526 33.1C92.9247 33.4467 93.4447 33.62 94.086 33.62C94.7447 33.62 95.2647 33.4727 95.646 33.178C96.0273 32.866 96.218 32.4413 96.218 31.904C96.218 31.4533 96.062 31.0807 95.75 30.786C95.4553 30.4913 95.0827 30.2487 94.632 30.058C94.1987 29.8673 93.5747 29.6507 92.76 29.408C91.5813 29.044 90.6193 28.68 89.874 28.316C89.1287 27.952 88.4873 27.4147 87.95 26.704C87.4127 25.9933 87.144 25.066 87.144 23.922C87.144 22.2233 87.7593 20.8973 88.99 19.944C90.2207 18.9733 91.824 18.488 93.8 18.488C95.8107 18.488 97.4313 18.9733 98.662 19.944C99.8927 20.8973 100.551 22.232 100.638 23.948H95.828C95.7933 23.3587 95.5767 22.8993 95.178 22.57C94.7793 22.2233 94.268 22.05 93.644 22.05C93.1067 22.05 92.6733 22.1973 92.344 22.492C92.0147 22.7693 91.85 23.1767 91.85 23.714C91.85 24.3033 92.1273 24.7627 92.682 25.092C93.2367 25.4213 94.1033 25.7767 95.282 26.158C96.4607 26.5567 97.414 26.938 98.142 27.302C98.8873 27.666 99.5287 28.1947 100.066 28.888C100.603 29.5813 100.872 30.474 100.872 31.566C100.872 32.606 100.603 33.5507 100.066 34.4C99.546 35.2493 98.7833 35.9253 97.778 36.428C96.7727 36.9307 95.5853 37.182 94.216 37.182ZM111.694 33.23V37H109.432C107.82 37 106.563 36.61 105.662 35.83C104.761 35.0327 104.31 33.7413 104.31 31.956V26.184H102.542V22.492H104.31V18.956H108.756V22.492H111.668V26.184H108.756V32.008C108.756 32.4413 108.86 32.7533 109.068 32.944C109.276 33.1347 109.623 33.23 110.108 33.23H111.694ZM113.287 29.72C113.287 28.2293 113.564 26.9207 114.119 25.794C114.691 24.6673 115.462 23.8007 116.433 23.194C117.403 22.5873 118.487 22.284 119.683 22.284C120.705 22.284 121.598 22.492 122.361 22.908C123.141 23.324 123.739 23.87 124.155 24.546V22.492H128.601V37H124.155V34.946C123.721 35.622 123.115 36.168 122.335 36.584C121.572 37 120.679 37.208 119.657 37.208C118.478 37.208 117.403 36.9047 116.433 36.298C115.462 35.674 114.691 34.7987 114.119 33.672C113.564 32.528 113.287 31.2107 113.287 29.72ZM124.155 29.746C124.155 28.6367 123.843 27.7613 123.219 27.12C122.612 26.4787 121.867 26.158 120.983 26.158C120.099 26.158 119.345 26.4787 118.721 27.12C118.114 27.744 117.811 28.6107 117.811 29.72C117.811 30.8293 118.114 31.7133 118.721 32.372C119.345 33.0133 120.099 33.334 120.983 33.334C121.867 33.334 122.612 33.0133 123.219 32.372C123.843 31.7307 124.155 30.8553 124.155 29.746ZM136.263 24.91C136.783 24.1127 137.433 23.4887 138.213 23.038C138.993 22.57 139.86 22.336 140.813 22.336V27.042H139.591C138.482 27.042 137.65 27.2847 137.095 27.77C136.54 28.238 136.263 29.07 136.263 30.266V37H131.817V22.492H136.263V24.91ZM151.024 33.23V37H148.762C147.15 37 145.894 36.61 144.992 35.83C144.091 35.0327 143.64 33.7413 143.64 31.956V26.184H141.872V22.492H143.64V18.956H148.086V22.492H150.998V26.184H148.086V32.008C148.086 32.4413 148.19 32.7533 148.398 32.944C148.606 33.1347 148.953 33.23 149.438 33.23H151.024ZM167.827 22.492V37H163.381V35.024C162.93 35.6653 162.315 36.1853 161.535 36.584C160.772 36.9653 159.923 37.156 158.987 37.156C157.877 37.156 156.898 36.9133 156.049 36.428C155.199 35.9253 154.541 35.206 154.073 34.27C153.605 33.334 153.371 32.2333 153.371 30.968V22.492H157.791V30.37C157.791 31.3407 158.042 32.0947 158.545 32.632C159.047 33.1693 159.723 33.438 160.573 33.438C161.439 33.438 162.124 33.1693 162.627 32.632C163.129 32.0947 163.381 31.3407 163.381 30.37V22.492H167.827ZM175.466 24.546C175.9 23.87 176.498 23.324 177.26 22.908C178.023 22.492 178.916 22.284 179.938 22.284C181.134 22.284 182.218 22.5873 183.188 23.194C184.159 23.8007 184.922 24.6673 185.476 25.794C186.048 26.9207 186.334 28.2293 186.334 29.72C186.334 31.2107 186.048 32.528 185.476 33.672C184.922 34.7987 184.159 35.674 183.188 36.298C182.218 36.9047 181.134 37.208 179.938 37.208C178.933 37.208 178.04 37 177.26 36.584C176.498 36.168 175.9 35.6307 175.466 34.972V43.916H171.02V22.492H175.466V24.546ZM181.81 29.72C181.81 28.6107 181.498 27.744 180.874 27.12C180.268 26.4787 179.514 26.158 178.612 26.158C177.728 26.158 176.974 26.4787 176.35 27.12C175.744 27.7613 175.44 28.6367 175.44 29.746C175.44 30.8553 175.744 31.7307 176.35 32.372C176.974 33.0133 177.728 33.334 178.612 33.334C179.496 33.334 180.25 33.0133 180.874 32.372C181.498 31.7133 181.81 30.8293 181.81 29.72ZM198.622 18.748V37H194.176V18.748H198.622ZM210.684 22.336C212.383 22.336 213.735 22.8907 214.74 24C215.763 25.092 216.274 26.6 216.274 28.524V37H211.854V29.122C211.854 28.1513 211.603 27.3973 211.1 26.86C210.598 26.3227 209.922 26.054 209.072 26.054C208.223 26.054 207.547 26.3227 207.044 26.86C206.542 27.3973 206.29 28.1513 206.29 29.122V37H201.844V22.492H206.29V24.416C206.741 23.7747 207.348 23.272 208.11 22.908C208.873 22.5267 209.731 22.336 210.684 22.336ZM218.48 29.746C218.48 28.238 218.783 26.9207 219.39 25.794C220.014 24.6673 220.872 23.8007 221.964 23.194C223.073 22.5873 224.339 22.284 225.76 22.284C227.58 22.284 229.097 22.7607 230.31 23.714C231.541 24.6673 232.347 26.0107 232.728 27.744H227.996C227.597 26.6347 226.826 26.08 225.682 26.08C224.867 26.08 224.217 26.4007 223.732 27.042C223.247 27.666 223.004 28.5673 223.004 29.746C223.004 30.9247 223.247 31.8347 223.732 32.476C224.217 33.1 224.867 33.412 225.682 33.412C226.826 33.412 227.597 32.8573 227.996 31.748H232.728C232.347 33.4467 231.541 34.7813 230.31 35.752C229.079 36.7227 227.563 37.208 225.76 37.208C224.339 37.208 223.073 36.9047 221.964 36.298C220.872 35.6913 220.014 34.8247 219.39 33.698C218.783 32.5713 218.48 31.254 218.48 29.746ZM237.186 37.208C236.406 37.208 235.765 36.9827 235.262 36.532C234.777 36.064 234.534 35.492 234.534 34.816C234.534 34.1227 234.777 33.542 235.262 33.074C235.765 32.606 236.406 32.372 237.186 32.372C237.949 32.372 238.573 32.606 239.058 33.074C239.561 33.542 239.812 34.1227 239.812 34.816C239.812 35.492 239.561 36.064 239.058 36.532C238.573 36.9827 237.949 37.208 237.186 37.208Z" fill="#434343"/>
<defs>
<filter id="filter0_d" x="0" y="0" width="56.0716" height="56.0703" filterUnits="userSpaceOnUse" color-interpolation-filters="sRGB">
<feFlood flood-opacity="0" result="BackgroundImageFix"/>
<feColorMatrix in="SourceAlpha" type="matrix" values="0 0 0 0 0 0 0 0 0 0 0 0 0 0 0 0 0 0 127 0"/>
<feOffset/>
<feGaussianBlur stdDeviation="0.5"/>
<feColorMatrix type="matrix" values="0 0 0 0 0 0 0 0 0 0 0 0 0 0 0 0 0 0 0.25 0"/>
<feBlend mode="normal" in2="BackgroundImageFix" result="effect1_dropShadow"/>
<feBlend mode="normal" in="SourceGraphic" in2="effect1_dropShadow" result="shape"/>
</filter>
<linearGradient id="paint0_linear" x1="28.0358" y1="1" x2="28.0358" y2="55.0703" gradientUnits="userSpaceOnUse">
<stop stop-color="#00AC11"/>
<stop offset="1" stop-color="#369B46"/>
</linearGradient>
</defs>
</svg>
