<svg width="827" height="262" viewBox="0 0 827 262" fill="none" xmlns="http://www.w3.org/2000/svg">
<rect x="44" y="174.707" width="61.2254" height="61.2254" rx="5.5" transform="rotate(45 44 174.707)" stroke="#C0D4F4"/>
<g filter="url(#filter0_d)">
<rect x="44" y="185" width="46.6691" height="46.6691" rx="6" transform="rotate(45 44 185)" fill="#FEA929"/>
</g>
<path d="M47.0574 228.648H42.824V212.33L37.7703 213.897V210.455L46.6033 207.29H47.0574V228.648Z" fill="white"/>
<rect x="414" y="101.707" width="61.2254" height="61.2254" rx="5.5" transform="rotate(45 414 101.707)" stroke="#C0D4F4"/>
<g filter="url(#filter1_d)">
<rect x="414" y="112" width="46.6691" height="46.6691" rx="6" transform="rotate(45 414 112)" fill="#FEA929"/>
</g>
<path d="M421.393 155.648H406.774V152.747L413.674 145.394C414.621 144.359 415.319 143.456 415.768 142.684C416.227 141.913 416.457 141.18 416.457 140.487C416.457 139.539 416.218 138.797 415.739 138.26C415.26 137.713 414.577 137.44 413.688 137.44C412.731 137.44 411.974 137.772 411.418 138.436C410.871 139.09 410.597 139.955 410.597 141.029H406.349C406.349 139.73 406.657 138.543 407.272 137.469C407.897 136.395 408.776 135.555 409.909 134.95C411.042 134.334 412.326 134.027 413.761 134.027C415.959 134.027 417.663 134.554 418.874 135.609C420.094 136.664 420.705 138.153 420.705 140.077C420.705 141.131 420.431 142.206 419.885 143.299C419.338 144.393 418.4 145.667 417.072 147.122L412.223 152.235H421.393V155.648Z" fill="white"/>
<rect x="783" y="27.7071" width="61.2254" height="61.2254" rx="5.5" transform="rotate(45 783 27.7071)" stroke="#C0D4F4"/>
<g filter="url(#filter2_d)">
<rect x="783" y="38" width="46.6691" height="46.6691" rx="6" transform="rotate(45 783 38)" fill="#FEA929"/>
</g>
<path d="M780.081 69.1088H782.337C783.411 69.1088 784.207 68.8403 784.724 68.3032C785.242 67.7661 785.501 67.0532 785.501 66.1645C785.501 65.3051 785.242 64.6362 784.724 64.1577C784.217 63.6791 783.513 63.4399 782.615 63.4399C781.804 63.4399 781.126 63.6645 780.579 64.1137C780.032 64.5532 779.759 65.1293 779.759 65.8422H775.525C775.525 64.7289 775.823 63.7328 776.419 62.8539C777.024 61.9653 777.864 61.2719 778.938 60.7739C780.022 60.2758 781.214 60.0268 782.512 60.0268C784.768 60.0268 786.536 60.5688 787.815 61.6528C789.094 62.727 789.734 64.2114 789.734 66.1059C789.734 67.0825 789.436 67.9809 788.841 68.8012C788.245 69.6215 787.464 70.2514 786.497 70.6909C787.698 71.1205 788.592 71.7651 789.177 72.6245C789.773 73.4838 790.071 74.4995 790.071 75.6713C790.071 77.5659 789.378 79.0844 787.991 80.227C786.614 81.3696 784.788 81.9409 782.512 81.9409C780.384 81.9409 778.64 81.3793 777.283 80.2563C775.935 79.1332 775.261 77.6489 775.261 75.8032H779.495C779.495 76.6039 779.793 77.2582 780.388 77.7661C780.994 78.2739 781.736 78.5278 782.615 78.5278C783.621 78.5278 784.407 78.2641 784.973 77.7368C785.55 77.1996 785.838 76.4916 785.838 75.6127C785.838 73.4838 784.666 72.4194 782.322 72.4194H780.081V69.1088Z" fill="white"/>
<path d="M85 218.5C120.5 230.167 182.5 236 230 196C273.441 159.418 337.5 144 373 144" stroke="#C0D4F4" stroke-dasharray="6 6"/>
<path d="M455 145.5C490.5 157.167 552.5 163 600 123C643.441 86.4179 706 71 741.5 71" stroke="#C0D4F4" stroke-dasharray="6 6"/>
<path d="M25.3692 158.07C24.9092 158.07 24.5026 157.99 24.1492 157.83C23.8026 157.67 23.5292 157.447 23.3292 157.16C23.1292 156.873 23.0226 156.553 23.0092 156.2H23.7492C23.7826 156.54 23.9326 156.84 24.1992 157.1C24.4659 157.353 24.8559 157.48 25.3692 157.48C25.8426 157.48 26.2159 157.36 26.4892 157.12C26.7692 156.873 26.9092 156.563 26.9092 156.19C26.9092 155.89 26.8326 155.65 26.6792 155.47C26.5259 155.283 26.3359 155.147 26.1092 155.06C25.8826 154.967 25.5692 154.867 25.1692 154.76C24.7026 154.633 24.3326 154.51 24.0592 154.39C23.7859 154.27 23.5526 154.083 23.3592 153.83C23.1659 153.577 23.0692 153.233 23.0692 152.8C23.0692 152.44 23.1626 152.12 23.3492 151.84C23.5359 151.553 23.7992 151.33 24.1392 151.17C24.4792 151.01 24.8692 150.93 25.3092 150.93C25.9559 150.93 26.4759 151.09 26.8692 151.41C27.2692 151.723 27.4992 152.13 27.5592 152.63H26.7992C26.7526 152.343 26.5959 152.09 26.3292 151.87C26.0626 151.643 25.7026 151.53 25.2492 151.53C24.8292 151.53 24.4792 151.643 24.1992 151.87C23.9192 152.09 23.7792 152.393 23.7792 152.78C23.7792 153.073 23.8559 153.31 24.0092 153.49C24.1626 153.67 24.3526 153.807 24.5792 153.9C24.8126 153.993 25.1259 154.093 25.5192 154.2C25.9726 154.327 26.3392 154.453 26.6192 154.58C26.8992 154.7 27.1359 154.887 27.3292 155.14C27.5226 155.393 27.6192 155.733 27.6192 156.16C27.6192 156.487 27.5326 156.797 27.3592 157.09C27.1859 157.383 26.9292 157.62 26.5892 157.8C26.2492 157.98 25.8426 158.07 25.3692 158.07ZM33.0619 151.01V151.59H31.1219V158H30.4219V151.59H28.4719V151.01H33.0619ZM34.8672 151.58V154.19H37.5172V154.77H34.8672V157.42H37.8172V158H34.1672V151H37.8172V151.58H34.8672ZM43.6665 153.02C43.6665 153.62 43.4698 154.103 43.0765 154.47C42.6832 154.837 42.0932 155.02 41.3065 155.02H39.8965V158H39.1965V151.01H41.3065C42.0865 151.01 42.6732 151.193 43.0665 151.56C43.4665 151.927 43.6665 152.413 43.6665 153.02ZM41.3065 154.42C42.3998 154.42 42.9465 153.953 42.9465 153.02C42.9465 152.553 42.8165 152.2 42.5565 151.96C42.2965 151.72 41.8798 151.6 41.3065 151.6H39.8965V154.42H41.3065ZM50.7252 158.07C50.0785 158.07 49.4918 157.92 48.9652 157.62C48.4385 157.313 48.0218 156.89 47.7152 156.35C47.4152 155.803 47.2652 155.187 47.2652 154.5C47.2652 153.813 47.4152 153.2 47.7152 152.66C48.0218 152.113 48.4385 151.69 48.9652 151.39C49.4918 151.083 50.0785 150.93 50.7252 150.93C51.3785 150.93 51.9685 151.083 52.4952 151.39C53.0218 151.69 53.4352 152.113 53.7352 152.66C54.0352 153.2 54.1852 153.813 54.1852 154.5C54.1852 155.187 54.0352 155.803 53.7352 156.35C53.4352 156.89 53.0218 157.313 52.4952 157.62C51.9685 157.92 51.3785 158.07 50.7252 158.07ZM50.7252 157.46C51.2452 157.46 51.7118 157.34 52.1252 157.1C52.5385 156.86 52.8652 156.517 53.1052 156.07C53.3452 155.617 53.4652 155.093 53.4652 154.5C53.4652 153.907 53.3452 153.387 53.1052 152.94C52.8652 152.493 52.5385 152.15 52.1252 151.91C51.7118 151.67 51.2452 151.55 50.7252 151.55C50.2052 151.55 49.7385 151.67 49.3252 151.91C48.9118 152.15 48.5852 152.493 48.3452 152.94C48.1052 153.387 47.9852 153.907 47.9852 154.5C47.9852 155.093 48.1052 155.617 48.3452 156.07C48.5852 156.517 48.9118 156.86 49.3252 157.1C49.7385 157.34 50.2052 157.46 50.7252 157.46ZM60.736 158H60.036L56.166 152.12V158H55.466V151.01H56.166L60.036 156.88V151.01H60.736V158ZM63.0215 151.58V154.19H65.6715V154.77H63.0215V157.42H65.9715V158H62.3215V151H65.9715V151.58H63.0215Z" fill="black"/>
<path d="M392.939 85.07C392.479 85.07 392.072 84.99 391.719 84.83C391.372 84.67 391.099 84.4467 390.899 84.16C390.699 83.8733 390.592 83.5533 390.579 83.2H391.319C391.352 83.54 391.502 83.84 391.769 84.1C392.035 84.3533 392.425 84.48 392.939 84.48C393.412 84.48 393.785 84.36 394.059 84.12C394.339 83.8733 394.479 83.5633 394.479 83.19C394.479 82.89 394.402 82.65 394.249 82.47C394.095 82.2833 393.905 82.1467 393.679 82.06C393.452 81.9667 393.139 81.8667 392.739 81.76C392.272 81.6333 391.902 81.51 391.629 81.39C391.355 81.27 391.122 81.0833 390.929 80.83C390.735 80.5767 390.639 80.2333 390.639 79.8C390.639 79.44 390.732 79.12 390.919 78.84C391.105 78.5533 391.369 78.33 391.709 78.17C392.049 78.01 392.439 77.93 392.879 77.93C393.525 77.93 394.045 78.09 394.439 78.41C394.839 78.7233 395.069 79.13 395.129 79.63H394.369C394.322 79.3433 394.165 79.09 393.899 78.87C393.632 78.6433 393.272 78.53 392.819 78.53C392.399 78.53 392.049 78.6433 391.769 78.87C391.489 79.09 391.349 79.3933 391.349 79.78C391.349 80.0733 391.425 80.31 391.579 80.49C391.732 80.67 391.922 80.8067 392.149 80.9C392.382 80.9933 392.695 81.0933 393.089 81.2C393.542 81.3267 393.909 81.4533 394.189 81.58C394.469 81.7 394.705 81.8867 394.899 82.14C395.092 82.3933 395.189 82.7333 395.189 83.16C395.189 83.4867 395.102 83.7967 394.929 84.09C394.755 84.3833 394.499 84.62 394.159 84.8C393.819 84.98 393.412 85.07 392.939 85.07ZM400.631 78.01V78.59H398.691V85H397.991V78.59H396.041V78.01H400.631ZM402.437 78.58V81.19H405.087V81.77H402.437V84.42H405.387V85H401.737V78H405.387V78.58H402.437ZM411.236 80.02C411.236 80.62 411.039 81.1033 410.646 81.47C410.252 81.8367 409.662 82.02 408.876 82.02H407.466V85H406.766V78.01H408.876C409.656 78.01 410.242 78.1933 410.636 78.56C411.036 78.9267 411.236 79.4133 411.236 80.02ZM408.876 81.42C409.969 81.42 410.516 80.9533 410.516 80.02C410.516 79.5533 410.386 79.2 410.126 78.96C409.866 78.72 409.449 78.6 408.876 78.6H407.466V81.42H408.876ZM419.244 78.01V78.59H417.304V85H416.604V78.59H414.654V78.01H419.244ZM428.83 78.01L426.85 85H426.07L424.31 79.04L422.51 85L421.75 85.01L419.81 78.01H420.56L422.16 84.14L423.95 78.01H424.73L426.47 84.14L428.08 78.01H428.83ZM433.041 85.07C432.394 85.07 431.807 84.92 431.281 84.62C430.754 84.3133 430.337 83.89 430.031 83.35C429.731 82.8033 429.581 82.1867 429.581 81.5C429.581 80.8133 429.731 80.2 430.031 79.66C430.337 79.1133 430.754 78.69 431.281 78.39C431.807 78.0833 432.394 77.93 433.041 77.93C433.694 77.93 434.284 78.0833 434.811 78.39C435.337 78.69 435.751 79.1133 436.051 79.66C436.351 80.2 436.501 80.8133 436.501 81.5C436.501 82.1867 436.351 82.8033 436.051 83.35C435.751 83.89 435.337 84.3133 434.811 84.62C434.284 84.92 433.694 85.07 433.041 85.07ZM433.041 84.46C433.561 84.46 434.027 84.34 434.441 84.1C434.854 83.86 435.181 83.5167 435.421 83.07C435.661 82.6167 435.781 82.0933 435.781 81.5C435.781 80.9067 435.661 80.3867 435.421 79.94C435.181 79.4933 434.854 79.15 434.441 78.91C434.027 78.67 433.561 78.55 433.041 78.55C432.521 78.55 432.054 78.67 431.641 78.91C431.227 79.15 430.901 79.4933 430.661 79.94C430.421 80.3867 430.301 80.9067 430.301 81.5C430.301 82.0933 430.421 82.6167 430.661 83.07C430.901 83.5167 431.227 83.86 431.641 84.1C432.054 84.34 432.521 84.46 433.041 84.46Z" fill="black"/>
<path d="M759.297 11.07C758.837 11.07 758.43 10.99 758.077 10.83C757.73 10.67 757.457 10.4467 757.257 10.16C757.057 9.87333 756.95 9.55333 756.937 9.2H757.677C757.71 9.54 757.86 9.84 758.127 10.1C758.394 10.3533 758.784 10.48 759.297 10.48C759.77 10.48 760.144 10.36 760.417 10.12C760.697 9.87333 760.837 9.56333 760.837 9.19C760.837 8.89 760.76 8.65 760.607 8.47C760.454 8.28333 760.264 8.14667 760.037 8.06C759.81 7.96667 759.497 7.86667 759.097 7.76C758.63 7.63333 758.26 7.51 757.987 7.39C757.714 7.27 757.48 7.08333 757.287 6.83C757.094 6.57667 756.997 6.23333 756.997 5.8C756.997 5.44 757.09 5.12 757.277 4.84C757.464 4.55333 757.727 4.33 758.067 4.17C758.407 4.01 758.797 3.93 759.237 3.93C759.884 3.93 760.404 4.09 760.797 4.41C761.197 4.72333 761.427 5.13 761.487 5.63H760.727C760.68 5.34333 760.524 5.09 760.257 4.87C759.99 4.64333 759.63 4.53 759.177 4.53C758.757 4.53 758.407 4.64333 758.127 4.87C757.847 5.09 757.707 5.39333 757.707 5.78C757.707 6.07333 757.784 6.31 757.937 6.49C758.09 6.67 758.28 6.80667 758.507 6.9C758.74 6.99333 759.054 7.09333 759.447 7.2C759.9 7.32667 760.267 7.45333 760.547 7.58C760.827 7.7 761.064 7.88667 761.257 8.14C761.45 8.39333 761.547 8.73333 761.547 9.16C761.547 9.48667 761.46 9.79667 761.287 10.09C761.114 10.3833 760.857 10.62 760.517 10.8C760.177 10.98 759.77 11.07 759.297 11.07ZM766.99 4.01V4.59H765.05V11H764.35V4.59H762.4V4.01H766.99ZM768.795 4.58V7.19H771.445V7.77H768.795V10.42H771.745V11H768.095V4H771.745V4.58H768.795ZM777.594 6.02C777.594 6.62 777.398 7.10333 777.004 7.47C776.611 7.83667 776.021 8.02 775.234 8.02H773.824V11H773.124V4.01H775.234C776.014 4.01 776.601 4.19333 776.994 4.56C777.394 4.92667 777.594 5.41333 777.594 6.02ZM775.234 7.42C776.328 7.42 776.874 6.95333 776.874 6.02C776.874 5.55333 776.744 5.2 776.484 4.96C776.224 4.72 775.808 4.6 775.234 4.6H773.824V7.42H775.234ZM785.603 4.01V4.59H783.663V11H782.963V4.59H781.013V4.01H785.603ZM791.898 4.01V11H791.198V7.73H787.408V11H786.708V4.01H787.408V7.15H791.198V4.01H791.898ZM797.215 11L795.485 8.08H794.195V11H793.495V4.01H795.595C796.375 4.01 796.965 4.19667 797.365 4.57C797.772 4.94333 797.975 5.43333 797.975 6.04C797.975 6.54667 797.829 6.98 797.535 7.34C797.249 7.69333 796.822 7.92333 796.255 8.03L798.055 11H797.215ZM794.195 7.51H795.605C796.152 7.51 796.562 7.37667 796.835 7.11C797.115 6.84333 797.255 6.48667 797.255 6.04C797.255 5.58 797.122 5.22667 796.855 4.98C796.589 4.72667 796.169 4.6 795.595 4.6H794.195V7.51ZM800.064 4.58V7.19H802.714V7.77H800.064V10.42H803.014V11H799.364V4H803.014V4.58H800.064ZM805.094 4.58V7.19H807.744V7.77H805.094V10.42H808.044V11H804.394V4H808.044V4.58H805.094Z" fill="black"/>
<defs>
<filter id="filter0_d" x="9" y="183" width="70.0001" height="70.0001" filterUnits="userSpaceOnUse" color-interpolation-filters="sRGB">
<feFlood flood-opacity="0" result="BackgroundImageFix"/>
<feColorMatrix in="SourceAlpha" type="matrix" values="0 0 0 0 0 0 0 0 0 0 0 0 0 0 0 0 0 0 127 0"/>
<feOffset/>
<feGaussianBlur stdDeviation="1"/>
<feColorMatrix type="matrix" values="0 0 0 0 0 0 0 0 0 0 0 0 0 0 0 0 0 0 0.25 0"/>
<feBlend mode="normal" in2="BackgroundImageFix" result="effect1_dropShadow"/>
<feBlend mode="normal" in="SourceGraphic" in2="effect1_dropShadow" result="shape"/>
</filter>
<filter id="filter1_d" x="379" y="110" width="70.0001" height="70.0001" filterUnits="userSpaceOnUse" color-interpolation-filters="sRGB">
<feFlood flood-opacity="0" result="BackgroundImageFix"/>
<feColorMatrix in="SourceAlpha" type="matrix" values="0 0 0 0 0 0 0 0 0 0 0 0 0 0 0 0 0 0 127 0"/>
<feOffset/>
<feGaussianBlur stdDeviation="1"/>
<feColorMatrix type="matrix" values="0 0 0 0 0 0 0 0 0 0 0 0 0 0 0 0 0 0 0.25 0"/>
<feBlend mode="normal" in2="BackgroundImageFix" result="effect1_dropShadow"/>
<feBlend mode="normal" in="SourceGraphic" in2="effect1_dropShadow" result="shape"/>
</filter>
<filter id="filter2_d" x="748" y="36" width="70.0001" height="70.0001" filterUnits="userSpaceOnUse" color-interpolation-filters="sRGB">
<feFlood flood-opacity="0" result="BackgroundImageFix"/>
<feColorMatrix in="SourceAlpha" type="matrix" values="0 0 0 0 0 0 0 0 0 0 0 0 0 0 0 0 0 0 127 0"/>
<feOffset/>
<feGaussianBlur stdDeviation="1"/>
<feColorMatrix type="matrix" values="0 0 0 0 0 0 0 0 0 0 0 0 0 0 0 0 0 0 0.25 0"/>
<feBlend mode="normal" in2="BackgroundImageFix" result="effect1_dropShadow"/>
<feBlend mode="normal" in="SourceGraphic" in2="effect1_dropShadow" result="shape"/>
</filter>
</defs>
</svg>
